<mxfile host="Electron" agent="Mozilla/5.0 (Macintosh; Intel Mac OS X 10_15_7) AppleWebKit/537.36 (KHTML, like Gecko) draw.io/28.1.2 Chrome/138.0.7204.243 Electron/37.4.0 Safari/537.36" version="28.1.2">
  <diagram name="PÃ¡gina-1" id="pFRy_QSM19LMW6b-lmXM">
    <mxGraphModel dx="984" dy="572" grid="0" gridSize="11" guides="1" tooltips="1" connect="1" arrows="1" fold="1" page="1" pageScale="1" pageWidth="2169" pageHeight="1169" math="0" shadow="0">
      <root>
        <mxCell id="0" />
        <mxCell id="1" parent="0" />
        <mxCell id="kyMfZM0D3pVHntF9WAAw-1" value="&lt;div&gt;&lt;span style=&quot;font-weight: normal;&quot;&gt;&amp;lt;&amp;lt;Entity&amp;gt;&amp;gt;&lt;/span&gt;&lt;/div&gt;Customer" style="swimlane;fontStyle=1;align=center;verticalAlign=top;childLayout=stackLayout;horizontal=1;startSize=34;horizontalStack=0;resizeParent=1;resizeParentMax=0;resizeLast=0;collapsible=1;marginBottom=0;whiteSpace=wrap;html=1;" vertex="1" parent="1">
          <mxGeometry x="595" y="346" width="245" height="319" as="geometry">
            <mxRectangle x="345" y="140" width="90" height="30" as="alternateBounds" />
          </mxGeometry>
        </mxCell>
        <mxCell id="kyMfZM0D3pVHntF9WAAw-2" value="&lt;div&gt;- id: UUID&lt;/div&gt;- fullName: String&lt;div&gt;- birthDate: LocalDate&lt;br&gt;&lt;div&gt;- email: String&lt;/div&gt;&lt;div&gt;- phone: String&lt;/div&gt;&lt;div&gt;- document: String&lt;/div&gt;&lt;div&gt;- promotionNotificationsAllowed: Boolean&lt;/div&gt;&lt;div&gt;- archived: Boolean&lt;/div&gt;&lt;/div&gt;&lt;div&gt;- registeredAt: OffsetDateTime&lt;/div&gt;&lt;div&gt;- archivedAt:&amp;nbsp;&lt;span style=&quot;background-color: transparent; color: light-dark(rgb(0, 0, 0), rgb(255, 255, 255));&quot;&gt;OffsetDateTime&lt;/span&gt;&lt;/div&gt;&lt;div&gt;&lt;span style=&quot;background-color: transparent; color: light-dark(rgb(0, 0, 0), rgb(255, 255, 255));&quot;&gt;- loyaltyPoints: Integer&lt;/span&gt;&lt;/div&gt;" style="text;strokeColor=none;fillColor=none;align=left;verticalAlign=top;spacingLeft=4;spacingRight=4;overflow=hidden;rotatable=0;points=[[0,0.5],[1,0.5]];portConstraint=eastwest;whiteSpace=wrap;html=1;" vertex="1" parent="kyMfZM0D3pVHntF9WAAw-1">
          <mxGeometry y="34" width="245" height="201" as="geometry" />
        </mxCell>
        <mxCell id="kyMfZM0D3pVHntF9WAAw-3" value="" style="line;strokeWidth=1;fillColor=none;align=left;verticalAlign=middle;spacingTop=-1;spacingLeft=3;spacingRight=3;rotatable=0;labelPosition=right;points=[];portConstraint=eastwest;strokeColor=inherit;" vertex="1" parent="kyMfZM0D3pVHntF9WAAw-1">
          <mxGeometry y="235" width="245" height="8" as="geometry" />
        </mxCell>
        <mxCell id="kyMfZM0D3pVHntF9WAAw-4" value="+ archive()&lt;div&gt;+ isArchived(): Boolean&lt;/div&gt;" style="text;strokeColor=none;fillColor=none;align=left;verticalAlign=top;spacingLeft=4;spacingRight=4;overflow=hidden;rotatable=0;points=[[0,0.5],[1,0.5]];portConstraint=eastwest;whiteSpace=wrap;html=1;" vertex="1" parent="kyMfZM0D3pVHntF9WAAw-1">
          <mxGeometry y="243" width="245" height="76" as="geometry" />
        </mxCell>
        <mxCell id="kyMfZM0D3pVHntF9WAAw-5" value="ShoppingCart" style="swimlane;fontStyle=1;align=center;verticalAlign=top;childLayout=stackLayout;horizontal=1;startSize=26;horizontalStack=0;resizeParent=1;resizeParentMax=0;resizeLast=0;collapsible=1;marginBottom=0;whiteSpace=wrap;html=1;" vertex="1" parent="1">
          <mxGeometry x="269" y="352" width="160" height="265" as="geometry" />
        </mxCell>
        <mxCell id="kyMfZM0D3pVHntF9WAAw-6" value="+ field: type" style="text;strokeColor=none;fillColor=none;align=left;verticalAlign=top;spacingLeft=4;spacingRight=4;overflow=hidden;rotatable=0;points=[[0,0.5],[1,0.5]];portConstraint=eastwest;whiteSpace=wrap;html=1;" vertex="1" parent="kyMfZM0D3pVHntF9WAAw-5">
          <mxGeometry y="26" width="160" height="90" as="geometry" />
        </mxCell>
        <mxCell id="kyMfZM0D3pVHntF9WAAw-7" value="" style="line;strokeWidth=1;fillColor=none;align=left;verticalAlign=middle;spacingTop=-1;spacingLeft=3;spacingRight=3;rotatable=0;labelPosition=right;points=[];portConstraint=eastwest;strokeColor=inherit;" vertex="1" parent="kyMfZM0D3pVHntF9WAAw-5">
          <mxGeometry y="116" width="160" height="8" as="geometry" />
        </mxCell>
        <mxCell id="kyMfZM0D3pVHntF9WAAw-8" value="+ method(type): type" style="text;strokeColor=none;fillColor=none;align=left;verticalAlign=top;spacingLeft=4;spacingRight=4;overflow=hidden;rotatable=0;points=[[0,0.5],[1,0.5]];portConstraint=eastwest;whiteSpace=wrap;html=1;" vertex="1" parent="kyMfZM0D3pVHntF9WAAw-5">
          <mxGeometry y="124" width="160" height="141" as="geometry" />
        </mxCell>
        <mxCell id="kyMfZM0D3pVHntF9WAAw-9" value="Order" style="swimlane;fontStyle=1;align=center;verticalAlign=top;childLayout=stackLayout;horizontal=1;startSize=26;horizontalStack=0;resizeParent=1;resizeParentMax=0;resizeLast=0;collapsible=1;marginBottom=0;whiteSpace=wrap;html=1;" vertex="1" parent="1">
          <mxGeometry x="946" y="352" width="160" height="270" as="geometry" />
        </mxCell>
        <mxCell id="kyMfZM0D3pVHntF9WAAw-10" value="+ field: type" style="text;strokeColor=none;fillColor=none;align=left;verticalAlign=top;spacingLeft=4;spacingRight=4;overflow=hidden;rotatable=0;points=[[0,0.5],[1,0.5]];portConstraint=eastwest;whiteSpace=wrap;html=1;" vertex="1" parent="kyMfZM0D3pVHntF9WAAw-9">
          <mxGeometry y="26" width="160" height="95" as="geometry" />
        </mxCell>
        <mxCell id="kyMfZM0D3pVHntF9WAAw-11" value="" style="line;strokeWidth=1;fillColor=none;align=left;verticalAlign=middle;spacingTop=-1;spacingLeft=3;spacingRight=3;rotatable=0;labelPosition=right;points=[];portConstraint=eastwest;strokeColor=inherit;" vertex="1" parent="kyMfZM0D3pVHntF9WAAw-9">
          <mxGeometry y="121" width="160" height="8" as="geometry" />
        </mxCell>
        <mxCell id="kyMfZM0D3pVHntF9WAAw-12" value="+ method(type): type" style="text;strokeColor=none;fillColor=none;align=left;verticalAlign=top;spacingLeft=4;spacingRight=4;overflow=hidden;rotatable=0;points=[[0,0.5],[1,0.5]];portConstraint=eastwest;whiteSpace=wrap;html=1;" vertex="1" parent="kyMfZM0D3pVHntF9WAAw-9">
          <mxGeometry y="129" width="160" height="141" as="geometry" />
        </mxCell>
        <mxCell id="kyMfZM0D3pVHntF9WAAw-13" value="Product" style="swimlane;fontStyle=1;align=center;verticalAlign=top;childLayout=stackLayout;horizontal=1;startSize=26;horizontalStack=0;resizeParent=1;resizeParentMax=0;resizeLast=0;collapsible=1;marginBottom=0;whiteSpace=wrap;html=1;" vertex="1" parent="1">
          <mxGeometry x="611" y="693" width="160" height="178" as="geometry" />
        </mxCell>
        <mxCell id="kyMfZM0D3pVHntF9WAAw-14" value="- name: String&lt;div&gt;- price: BigDecimal&lt;/div&gt;" style="text;strokeColor=none;fillColor=none;align=left;verticalAlign=top;spacingLeft=4;spacingRight=4;overflow=hidden;rotatable=0;points=[[0,0.5],[1,0.5]];portConstraint=eastwest;whiteSpace=wrap;html=1;" vertex="1" parent="kyMfZM0D3pVHntF9WAAw-13">
          <mxGeometry y="26" width="160" height="54" as="geometry" />
        </mxCell>
        <mxCell id="kyMfZM0D3pVHntF9WAAw-15" value="" style="line;strokeWidth=1;fillColor=none;align=left;verticalAlign=middle;spacingTop=-1;spacingLeft=3;spacingRight=3;rotatable=0;labelPosition=right;points=[];portConstraint=eastwest;strokeColor=inherit;" vertex="1" parent="kyMfZM0D3pVHntF9WAAw-13">
          <mxGeometry y="80" width="160" height="8" as="geometry" />
        </mxCell>
        <mxCell id="kyMfZM0D3pVHntF9WAAw-16" value="+ method(type): type" style="text;strokeColor=none;fillColor=none;align=left;verticalAlign=top;spacingLeft=4;spacingRight=4;overflow=hidden;rotatable=0;points=[[0,0.5],[1,0.5]];portConstraint=eastwest;whiteSpace=wrap;html=1;" vertex="1" parent="kyMfZM0D3pVHntF9WAAw-13">
          <mxGeometry y="88" width="160" height="90" as="geometry" />
        </mxCell>
        <mxCell id="kyMfZM0D3pVHntF9WAAw-17" value="Address" style="swimlane;fontStyle=1;align=center;verticalAlign=top;childLayout=stackLayout;horizontal=1;startSize=26;horizontalStack=0;resizeParent=1;resizeParentMax=0;resizeLast=0;collapsible=1;marginBottom=0;whiteSpace=wrap;html=1;" vertex="1" parent="1">
          <mxGeometry x="943" y="173" width="160" height="86" as="geometry" />
        </mxCell>
        <mxCell id="kyMfZM0D3pVHntF9WAAw-18" value="+ field: type" style="text;strokeColor=none;fillColor=none;align=left;verticalAlign=top;spacingLeft=4;spacingRight=4;overflow=hidden;rotatable=0;points=[[0,0.5],[1,0.5]];portConstraint=eastwest;whiteSpace=wrap;html=1;" vertex="1" parent="kyMfZM0D3pVHntF9WAAw-17">
          <mxGeometry y="26" width="160" height="26" as="geometry" />
        </mxCell>
        <mxCell id="kyMfZM0D3pVHntF9WAAw-19" value="" style="line;strokeWidth=1;fillColor=none;align=left;verticalAlign=middle;spacingTop=-1;spacingLeft=3;spacingRight=3;rotatable=0;labelPosition=right;points=[];portConstraint=eastwest;strokeColor=inherit;" vertex="1" parent="kyMfZM0D3pVHntF9WAAw-17">
          <mxGeometry y="52" width="160" height="8" as="geometry" />
        </mxCell>
        <mxCell id="kyMfZM0D3pVHntF9WAAw-20" value="+ method(type): type" style="text;strokeColor=none;fillColor=none;align=left;verticalAlign=top;spacingLeft=4;spacingRight=4;overflow=hidden;rotatable=0;points=[[0,0.5],[1,0.5]];portConstraint=eastwest;whiteSpace=wrap;html=1;" vertex="1" parent="kyMfZM0D3pVHntF9WAAw-17">
          <mxGeometry y="60" width="160" height="26" as="geometry" />
        </mxCell>
        <mxCell id="kyMfZM0D3pVHntF9WAAw-25" value="" style="endArrow=none;startArrow=classic;endFill=0;startFill=1;html=1;rounded=0;exitX=0.999;exitY=0.379;exitDx=0;exitDy=0;exitPerimeter=0;entryX=0.001;entryY=0.816;entryDx=0;entryDy=0;entryPerimeter=0;" edge="1" parent="1" source="kyMfZM0D3pVHntF9WAAw-2" target="kyMfZM0D3pVHntF9WAAw-10">
          <mxGeometry width="160" relative="1" as="geometry">
            <mxPoint x="617" y="408" as="sourcePoint" />
            <mxPoint x="725" y="456" as="targetPoint" />
          </mxGeometry>
        </mxCell>
        <mxCell id="kyMfZM0D3pVHntF9WAAw-28" value="- customer" style="text;strokeColor=none;fillColor=none;align=left;verticalAlign=top;spacingLeft=4;spacingRight=4;overflow=hidden;rotatable=0;points=[[0,0.5],[1,0.5]];portConstraint=eastwest;whiteSpace=wrap;html=1;fontSize=8;" vertex="1" parent="1">
          <mxGeometry x="843" y="433" width="85" height="18" as="geometry" />
        </mxCell>
        <mxCell id="kyMfZM0D3pVHntF9WAAw-30" value="" style="endArrow=block;startArrow=none;endFill=1;startFill=0;html=1;rounded=0;entryX=-0.003;entryY=0.376;entryDx=0;entryDy=0;entryPerimeter=0;exitX=0.988;exitY=0.857;exitDx=0;exitDy=0;exitPerimeter=0;" edge="1" parent="1" source="kyMfZM0D3pVHntF9WAAw-6" target="kyMfZM0D3pVHntF9WAAw-2">
          <mxGeometry width="160" relative="1" as="geometry">
            <mxPoint x="324" y="454" as="sourcePoint" />
            <mxPoint x="429" y="456" as="targetPoint" />
          </mxGeometry>
        </mxCell>
        <mxCell id="kyMfZM0D3pVHntF9WAAw-31" value="- customer" style="text;strokeColor=none;fillColor=none;align=left;verticalAlign=top;spacingLeft=4;spacingRight=4;overflow=hidden;rotatable=0;points=[[0,0.5],[1,0.5]];portConstraint=eastwest;whiteSpace=wrap;html=1;fontSize=8;" vertex="1" parent="1">
          <mxGeometry x="547" y="433" width="85" height="18" as="geometry" />
        </mxCell>
        <mxCell id="kyMfZM0D3pVHntF9WAAw-36" value="- address" style="text;strokeColor=none;fillColor=none;align=left;verticalAlign=top;spacingLeft=4;spacingRight=4;overflow=hidden;rotatable=0;points=[[0,0.5],[1,0.5]];portConstraint=eastwest;whiteSpace=wrap;html=1;fontSize=8;" vertex="1" parent="1">
          <mxGeometry x="1029" y="266" width="85" height="18" as="geometry" />
        </mxCell>
        <mxCell id="kyMfZM0D3pVHntF9WAAw-35" value="" style="endArrow=block;startArrow=none;endFill=1;startFill=0;html=1;rounded=0;exitX=0.5;exitY=0;exitDx=0;exitDy=0;entryX=0.517;entryY=0.936;entryDx=0;entryDy=0;entryPerimeter=0;" edge="1" parent="1" source="kyMfZM0D3pVHntF9WAAw-9" target="kyMfZM0D3pVHntF9WAAw-20">
          <mxGeometry width="160" relative="1" as="geometry">
            <mxPoint x="1019" y="622" as="sourcePoint" />
            <mxPoint x="1022" y="259" as="targetPoint" />
          </mxGeometry>
        </mxCell>
        <mxCell id="kyMfZM0D3pVHntF9WAAw-37" value="ShoppingCartItem" style="swimlane;fontStyle=1;align=center;verticalAlign=top;childLayout=stackLayout;horizontal=1;startSize=26;horizontalStack=0;resizeParent=1;resizeParentMax=0;resizeLast=0;collapsible=1;marginBottom=0;whiteSpace=wrap;html=1;" vertex="1" parent="1">
          <mxGeometry x="258" y="707" width="160" height="86" as="geometry" />
        </mxCell>
        <mxCell id="kyMfZM0D3pVHntF9WAAw-38" value="- quantity: Integer" style="text;strokeColor=none;fillColor=none;align=left;verticalAlign=top;spacingLeft=4;spacingRight=4;overflow=hidden;rotatable=0;points=[[0,0.5],[1,0.5]];portConstraint=eastwest;whiteSpace=wrap;html=1;" vertex="1" parent="kyMfZM0D3pVHntF9WAAw-37">
          <mxGeometry y="26" width="160" height="26" as="geometry" />
        </mxCell>
        <mxCell id="kyMfZM0D3pVHntF9WAAw-39" value="" style="line;strokeWidth=1;fillColor=none;align=left;verticalAlign=middle;spacingTop=-1;spacingLeft=3;spacingRight=3;rotatable=0;labelPosition=right;points=[];portConstraint=eastwest;strokeColor=inherit;" vertex="1" parent="kyMfZM0D3pVHntF9WAAw-37">
          <mxGeometry y="52" width="160" height="8" as="geometry" />
        </mxCell>
        <mxCell id="kyMfZM0D3pVHntF9WAAw-40" value="+ method(type): type" style="text;strokeColor=none;fillColor=none;align=left;verticalAlign=top;spacingLeft=4;spacingRight=4;overflow=hidden;rotatable=0;points=[[0,0.5],[1,0.5]];portConstraint=eastwest;whiteSpace=wrap;html=1;" vertex="1" parent="kyMfZM0D3pVHntF9WAAw-37">
          <mxGeometry y="60" width="160" height="26" as="geometry" />
        </mxCell>
        <mxCell id="kyMfZM0D3pVHntF9WAAw-41" value="OrderItem" style="swimlane;fontStyle=1;align=center;verticalAlign=top;childLayout=stackLayout;horizontal=1;startSize=26;horizontalStack=0;resizeParent=1;resizeParentMax=0;resizeLast=0;collapsible=1;marginBottom=0;whiteSpace=wrap;html=1;" vertex="1" parent="1">
          <mxGeometry x="939" y="707" width="161" height="86" as="geometry" />
        </mxCell>
        <mxCell id="kyMfZM0D3pVHntF9WAAw-42" value="- quantity: Integer" style="text;strokeColor=none;fillColor=none;align=left;verticalAlign=top;spacingLeft=4;spacingRight=4;overflow=hidden;rotatable=0;points=[[0,0.5],[1,0.5]];portConstraint=eastwest;whiteSpace=wrap;html=1;" vertex="1" parent="kyMfZM0D3pVHntF9WAAw-41">
          <mxGeometry y="26" width="161" height="26" as="geometry" />
        </mxCell>
        <mxCell id="kyMfZM0D3pVHntF9WAAw-43" value="" style="line;strokeWidth=1;fillColor=none;align=left;verticalAlign=middle;spacingTop=-1;spacingLeft=3;spacingRight=3;rotatable=0;labelPosition=right;points=[];portConstraint=eastwest;strokeColor=inherit;" vertex="1" parent="kyMfZM0D3pVHntF9WAAw-41">
          <mxGeometry y="52" width="161" height="8" as="geometry" />
        </mxCell>
        <mxCell id="kyMfZM0D3pVHntF9WAAw-44" value="+ method(type): type" style="text;strokeColor=none;fillColor=none;align=left;verticalAlign=top;spacingLeft=4;spacingRight=4;overflow=hidden;rotatable=0;points=[[0,0.5],[1,0.5]];portConstraint=eastwest;whiteSpace=wrap;html=1;" vertex="1" parent="kyMfZM0D3pVHntF9WAAw-41">
          <mxGeometry y="60" width="161" height="26" as="geometry" />
        </mxCell>
        <mxCell id="kyMfZM0D3pVHntF9WAAw-48" style="edgeStyle=orthogonalEdgeStyle;rounded=0;orthogonalLoop=1;jettySize=auto;html=1;entryX=1;entryY=0.5;entryDx=0;entryDy=0;" edge="1" parent="1" source="kyMfZM0D3pVHntF9WAAw-42" target="kyMfZM0D3pVHntF9WAAw-14">
          <mxGeometry relative="1" as="geometry" />
        </mxCell>
        <mxCell id="kyMfZM0D3pVHntF9WAAw-49" style="edgeStyle=orthogonalEdgeStyle;rounded=0;orthogonalLoop=1;jettySize=auto;html=1;entryX=0;entryY=0.5;entryDx=0;entryDy=0;" edge="1" parent="1" source="kyMfZM0D3pVHntF9WAAw-38" target="kyMfZM0D3pVHntF9WAAw-14">
          <mxGeometry relative="1" as="geometry" />
        </mxCell>
        <mxCell id="kyMfZM0D3pVHntF9WAAw-53" value="- product" style="text;strokeColor=none;fillColor=none;align=left;verticalAlign=top;spacingLeft=4;spacingRight=4;overflow=hidden;rotatable=0;points=[[0,0.5],[1,0.5]];portConstraint=eastwest;whiteSpace=wrap;html=1;fontSize=8;" vertex="1" parent="1">
          <mxGeometry x="563" y="723" width="85" height="18" as="geometry" />
        </mxCell>
        <mxCell id="kyMfZM0D3pVHntF9WAAw-54" value="- product" style="text;strokeColor=none;fillColor=none;align=left;verticalAlign=top;spacingLeft=4;spacingRight=4;overflow=hidden;rotatable=0;points=[[0,0.5],[1,0.5]];portConstraint=eastwest;whiteSpace=wrap;html=1;fontSize=8;" vertex="1" parent="1">
          <mxGeometry x="778" y="720" width="85" height="18" as="geometry" />
        </mxCell>
        <mxCell id="kyMfZM0D3pVHntF9WAAw-55" value="-items" style="endArrow=open;html=1;endSize=12;startArrow=diamondThin;startSize=14;startFill=0;edgeStyle=orthogonalEdgeStyle;rounded=0;entryX=0.5;entryY=0;entryDx=0;entryDy=0;" edge="1" parent="1" target="kyMfZM0D3pVHntF9WAAw-41">
          <mxGeometry relative="1" as="geometry">
            <mxPoint x="1018" y="622" as="sourcePoint" />
            <mxPoint x="1178" y="622" as="targetPoint" />
          </mxGeometry>
        </mxCell>
        <mxCell id="kyMfZM0D3pVHntF9WAAw-56" value="0..n" style="edgeLabel;resizable=0;html=1;align=left;verticalAlign=top;" connectable="0" vertex="1" parent="kyMfZM0D3pVHntF9WAAw-55">
          <mxGeometry x="-1" relative="1" as="geometry">
            <mxPoint x="10" y="58" as="offset" />
          </mxGeometry>
        </mxCell>
        <mxCell id="kyMfZM0D3pVHntF9WAAw-58" value="- items" style="endArrow=open;html=1;endSize=12;startArrow=diamondThin;startSize=14;startFill=0;edgeStyle=orthogonalEdgeStyle;rounded=0;entryX=0.5;entryY=0;entryDx=0;entryDy=0;" edge="1" parent="1" target="kyMfZM0D3pVHntF9WAAw-37">
          <mxGeometry relative="1" as="geometry">
            <mxPoint x="338" y="617" as="sourcePoint" />
            <mxPoint x="498" y="617" as="targetPoint" />
          </mxGeometry>
        </mxCell>
        <mxCell id="kyMfZM0D3pVHntF9WAAw-59" value="0..n" style="edgeLabel;resizable=0;html=1;align=left;verticalAlign=top;" connectable="0" vertex="1" parent="kyMfZM0D3pVHntF9WAAw-58">
          <mxGeometry x="-1" relative="1" as="geometry">
            <mxPoint x="10" y="61" as="offset" />
          </mxGeometry>
        </mxCell>
      </root>
    </mxGraphModel>
  </diagram>
</mxfile>
